<svg xmlns="http://www.w3.org/2000/svg" viewBox="0 0 68.72 18.87"><defs><style>.cls-1{opacity:0.67;}.cls-2{fill:#fff;}.cls-3{fill:#cee2ef;}.cls-4{fill:#e8f3f9;}.cls-5{fill:#b9d0e2;}</style></defs><g id="Layer_2" data-name="Layer 2"><g id="_1" data-name="1"><g id="_3" data-name="3"><g id="_6_-Plane" data-name="6 -Plane" class="cls-1"><path class="cls-2" d="M62.31,12.51c-.07-3.09-14.07-5.32-31.27-5-16.6.35-25,2.84-31,5.94l58.82,1.68C61.08,14.35,62.33,13.45,62.31,12.51Z"/><path class="cls-3" d="M.05,13.49a1.26,1.26,0,0,0,0,.33c.06,3.1,14.57,3.12,31.77,2.76,12-.25,22,.5,27.1-1.41Z"/><path class="cls-4" d="M68.68,5.45,65.2,3.13l-1.85,10C65.82,11.78,69.14,9.23,68.68,5.45Z"/><path class="cls-2" d="M60.52,0s-3.2,1.72-1.47,3,3.54,7.41-2.55,6.39,4.32,4.89,4.32,4.89a17.84,17.84,0,0,0,2.53-1.15l1.85-10Z"/><path class="cls-2" d="M27,13.25l14.6-.3,8.79,4.53S48.85,22.57,27,13.25Z"/><path class="cls-3" d="M52.74,12.72l7.47-.16,5.39,1.62S58.12,15.91,52.74,12.72Z"/><path class="cls-3" d="M11.36,10.23l.09,4.4-8.93-.86S3.9,12.21,11.36,10.23Z"/><path class="cls-5" d="M15.73,11.46A1.32,1.32,0,1,0,17,10.12,1.32,1.32,0,0,0,15.73,11.46Z"/><path class="cls-5" d="M20.94,11.35a1.32,1.32,0,1,0,2.63,0,1.32,1.32,0,0,0-2.63,0Z"/><path class="cls-5" d="M26.15,11.24A1.32,1.32,0,1,0,27.44,9.9,1.33,1.33,0,0,0,26.15,11.24Z"/><path class="cls-5" d="M31.37,11.13a1.32,1.32,0,1,0,1.29-1.34A1.3,1.3,0,0,0,31.37,11.13Z"/><path class="cls-5" d="M36.58,11a1.32,1.32,0,1,0,1.29-1.34A1.32,1.32,0,0,0,36.58,11Z"/><path class="cls-5" d="M41.79,10.91a1.32,1.32,0,1,0,1.29-1.34A1.32,1.32,0,0,0,41.79,10.91Z"/><path class="cls-5" d="M47,10.8a1.32,1.32,0,0,0,2.63-.05A1.32,1.32,0,1,0,47,10.8Z"/></g></g></g></g></svg>